<svg width="60" height="60" viewBox="0 0 60 60" fill="none" xmlns="http://www.w3.org/2000/svg">
<path fill-rule="evenodd" clip-rule="evenodd" d="M37.5 26.2499C39.3845 26.2496 41.2186 25.6412 42.7297 24.5152C44.2408 23.3892 45.3483 21.8057 45.8875 19.9999H52.5C53.163 19.9999 53.7989 19.7365 54.2678 19.2677C54.7366 18.7989 55 18.163 55 17.4999C55 16.8369 54.7366 16.201 54.2678 15.7322C53.7989 15.2633 53.163 14.9999 52.5 14.9999H45.8875C45.3474 13.1951 44.2396 11.6127 42.7285 10.4876C41.2175 9.36254 39.3839 8.75488 37.5 8.75488C35.6161 8.75488 33.7825 9.36254 32.2715 10.4876C30.7604 11.6127 29.6526 13.1951 29.1125 14.9999H7.5C6.83696 14.9999 6.20107 15.2633 5.73223 15.7322C5.26339 16.201 5 16.8369 5 17.4999C5 18.163 5.26339 18.7989 5.73223 19.2677C6.20107 19.7365 6.83696 19.9999 7.5 19.9999H29.1125C29.6517 21.8057 30.7592 23.3892 32.2703 24.5152C33.7814 25.6412 35.6155 26.2496 37.5 26.2499ZM7.5 39.9999C6.83696 39.9999 6.20107 40.2633 5.73223 40.7322C5.26339 41.201 5 41.8369 5 42.4999C5 43.163 5.26339 43.7989 5.73223 44.2677C6.20107 44.7365 6.83696 44.9999 7.5 44.9999H12.8625C13.4026 46.8047 14.5104 48.3872 16.0215 49.5122C17.5325 50.6373 19.3661 51.245 21.25 51.245C23.1339 51.245 24.9675 50.6373 26.4785 49.5122C27.9896 48.3872 29.0974 46.8047 29.6375 44.9999H52.5C53.163 44.9999 53.7989 44.7365 54.2678 44.2677C54.7366 43.7989 55 43.163 55 42.4999C55 41.8369 54.7366 41.201 54.2678 40.7322C53.7989 40.2633 53.163 39.9999 52.5 39.9999H29.6375C29.0974 38.1951 27.9896 36.6127 26.4785 35.4876C24.9675 34.3625 23.1339 33.7549 21.25 33.7549C19.3661 33.7549 17.5325 34.3625 16.0215 35.4876C14.5104 36.6127 13.4026 38.1951 12.8625 39.9999H7.5Z" fill="#2485E8"/>
</svg>
