<svg width="23" height="23" viewBox="0 0 23 23" fill="none" xmlns="http://www.w3.org/2000/svg">
<path fill-rule="evenodd" clip-rule="evenodd" d="M22.0759 11.5205C22.0759 10.7219 22.0042 9.954 21.8711 9.2168H11.2637V13.5734H17.3251C17.064 14.9813 16.2705 16.1741 15.0777 16.9727V19.7987H18.7176C20.8473 17.8379 22.0759 14.9506 22.0759 11.5205Z" fill="#4285F4"/>
<path fill-rule="evenodd" clip-rule="evenodd" d="M11.2621 22.5252C14.303 22.5252 16.8525 21.5166 18.716 19.7965L15.076 16.9706C14.0675 17.6464 12.7774 18.0457 11.2621 18.0457C8.32864 18.0457 5.84571 16.0644 4.96005 13.4023H1.19727V16.3204C3.0505 20.0013 6.85936 22.5252 11.2621 22.5252Z" fill="#34A853"/>
<path fill-rule="evenodd" clip-rule="evenodd" d="M4.96073 13.403C4.73548 12.7272 4.60749 12.0054 4.60749 11.2631C4.60749 10.5208 4.73548 9.79892 4.96073 9.12316V6.20508H1.19795C0.435152 7.72555 0 9.44568 0 11.2631C0 13.0805 0.435152 14.8006 1.19795 16.3211L4.96073 13.403Z" fill="#FBBC05"/>
<path fill-rule="evenodd" clip-rule="evenodd" d="M11.2621 4.4795C12.9156 4.4795 14.4003 5.04776 15.5675 6.1638L18.7979 2.93344C16.8474 1.11604 14.2979 0 11.2621 0C6.85936 0 3.0505 2.52388 1.19727 6.20475L4.96005 9.12283C5.84571 6.46072 8.32864 4.4795 11.2621 4.4795Z" fill="#EA4335"/>
</svg>
